D:\school\WTK\thesis\model\3dpredictsim\Results\Batchsim_tmt_linear_v2\Pog_s1_tmt_bCst_d05_k1000_ig24_act_GRF.mot
nRows=17
nColumns=19

name D:\school\WTK\thesis\model\3dpredictsim\Results\Batchsim_tmt_linear_v2\Pog_s1_tmt_bCst_d05_k1000_ig24_act_GRF.mot
datacolumns 19
datarows 17
range 0.0000000000 0.2042047655
endheader
time 	ground_force_vx	ground_force_vy	ground_force_vz	ground_force_px	ground_force_py	ground_force_pz	1_ground_force_vx	1_ground_force_vy	1_ground_force_vz	1_ground_force_px	1_ground_force_py	1_ground_force_pz	ground_torque_x	ground_torque_y	ground_torque_z	1_ground_torque_x	1_ground_torque_y	1_ground_torque_z
        0.0000000000	      -88.0580043387	       74.1197697811	       12.0465109820	        0.2045523342	        0.0000000000	        0.0519776243	       35.9535074406	      227.6965285264	       -6.4189772069	       -0.3519234715	        0.0000000000	       -0.0368242917	        0.0000000000	        0.0000000000	        0.0000000000	        0.0000000000	        0.0000000000	        0.0000000000	
        0.0127627978	     -133.2204648967	      242.0546482452	       17.8693537341	        0.2116111433	        0.0000000000	        0.0510283599	       24.9828701574	      192.5722343756	      -10.9957736920	       -0.3475042625	        0.0000000000	       -0.0357721514	        0.0000000000	        0.0000000000	        0.0000000000	        0.0000000000	        0.0000000000	        0.0000000000	
        0.0255255957	     -102.9735466671	      520.6652358614	       -2.4801304004	        0.2162869837	        0.0000000000	        0.0508019730	       23.6538331525	      151.7086801154	      -12.6584422843	       -0.3469716238	        0.0000000000	       -0.0359738767	        0.0000000000	        0.0000000000	        0.0000000000	        0.0000000000	        0.0000000000	        0.0000000000	
        0.0382883935	     -146.9917499394	      811.2621683478	      -19.4266357784	        0.2269284640	        0.0000000000	        0.0528740270	       17.0764896955	      100.3114856762	      -11.9411852091	       -0.3464761918	        0.0000000000	       -0.0361712571	        0.0000000000	        0.0000000000	        0.0000000000	        0.0000000000	        0.0000000000	        0.0000000000	
        0.0510511914	     -202.5447312466	      999.7305144330	      -25.1896090919	        0.2370703484	        0.0000000000	        0.0551383482	        1.3139586009	       40.1518753239	       -7.0781078091	       -0.3469943245	        0.0000000000	       -0.0363932621	        0.0000000000	        0.0000000000	        0.0000000000	        0.0000000000	        0.0000000000	        0.0000000000	
        0.0638139892	     -203.8103803706	     1004.2069684194	      -25.0689858829	        0.2436498257	        0.0000000000	        0.0564282277	        0.5303217556	       -0.5191451409	       -0.0100591140	        0.0000000000	        0.0000000000	        0.0000000000	        0.0000000000	        0.0000000000	        0.0000000000	        0.0000000000	        0.0000000000	        0.0000000000	
        0.0765767871	     -174.5504382778	      913.7090316926	      -22.8349709492	        0.2485195730	        0.0000000000	        0.0572319857	        0.4353840795	       -0.3348047904	       -0.0373829267	        0.0000000000	        0.0000000000	        0.0000000000	        0.0000000000	        0.0000000000	        0.0000000000	        0.0000000000	        0.0000000000	        0.0000000000	
        0.0893395849	     -151.7242964091	      823.2603347600	      -18.6291134520	        0.2528789333	        0.0000000000	        0.0577534115	       -4.5770045318	        3.0204144561	        0.4181876869	        0.0000000000	        0.0000000000	        0.0000000000	        0.0000000000	        0.0000000000	        0.0000000000	        0.0000000000	        0.0000000000	        0.0000000000	
        0.1021023827	     -132.0741317757	      772.4155081495	      -16.7595356880	        0.2576807697	        0.0000000000	        0.0581373970	       -3.3515644783	        1.9791326236	        0.2949644876	        0.0000000000	        0.0000000000	        0.0000000000	        0.0000000000	        0.0000000000	        0.0000000000	        0.0000000000	        0.0000000000	        0.0000000000	
        0.1148651806	     -120.0417192654	      741.8914308674	      -15.6093353983	        0.2638700221	        0.0000000000	        0.0581612344	       -2.5302095453	        1.3721290976	        0.2039094647	        0.0000000000	        0.0000000000	        0.0000000000	        0.0000000000	        0.0000000000	        0.0000000000	        0.0000000000	        0.0000000000	        0.0000000000	
        0.1276279784	     -108.5015016823	      714.1548722380	      -14.7321709705	        0.2697530742	        0.0000000000	        0.0579291836	       -1.9236565318	        0.9791876595	        0.1378657568	        0.0000000000	        0.0000000000	        0.0000000000	        0.0000000000	        0.0000000000	        0.0000000000	        0.0000000000	        0.0000000000	        0.0000000000	
        0.1403907763	      -97.3684574337	      684.5057894532	      -14.4486819025	        0.2748938901	        0.0000000000	        0.0576807163	       -1.3827847472	        0.6745993343	        0.0821889859	        0.0000000000	        0.0000000000	        0.0000000000	        0.0000000000	        0.0000000000	        0.0000000000	        0.0000000000	        0.0000000000	        0.0000000000	
        0.1531535741	      -87.2973805339	      658.5569886025	      -14.4085473009	        0.2796430235	        0.0000000000	        0.0573811172	       -1.0446098834	        0.4920688799	        0.0504270118	        0.0000000000	        0.0000000000	        0.0000000000	        0.0000000000	        0.0000000000	        0.0000000000	        0.0000000000	        0.0000000000	        0.0000000000	
        0.1659163720	      -78.3474864744	      637.1759755494	      -14.9109150730	        0.2841206244	        0.0000000000	        0.0570791204	       -0.8728557805	        0.3997046750	        0.0337491382	        0.0000000000	        0.0000000000	        0.0000000000	        0.0000000000	        0.0000000000	        0.0000000000	        0.0000000000	        0.0000000000	        0.0000000000	
        0.1786791698	      -70.3407976279	      619.8899662358	      -15.7810669908	        0.2883268070	        0.0000000000	        0.0567903104	       -0.8007832220	        0.3579188770	        0.0244568730	        0.0000000000	        0.0000000000	        0.0000000000	        0.0000000000	        0.0000000000	        0.0000000000	        0.0000000000	        0.0000000000	        0.0000000000	
        0.1914419676	      -62.7791704843	      605.5970996839	      -16.7623570570	        0.2923161178	        0.0000000000	        0.0564998679	       -0.7968885338	        0.3487197803	        0.0190726701	        0.0000000000	        0.0000000000	        0.0000000000	        0.0000000000	        0.0000000000	        0.0000000000	        0.0000000000	        0.0000000000	        0.0000000000	
        0.2042047655	      -55.7794549077	      593.4626381342	      -17.6337802452	        0.2960790119	        0.0000000000	        0.0562077124	       -0.8609776777	        0.3692900006	        0.0162521562	        0.0000000000	        0.0000000000	        0.0000000000	        0.0000000000	        0.0000000000	        0.0000000000	        0.0000000000	        0.0000000000	        0.0000000000	
